<?xml version="1.0"?>
<svg version="1.1" xmlns="http://www.w3.org/2000/svg" width="400" height="200" style=""><path fill="#916c8f" d="M39.7,93.25l0,0.3l-0.35,3c-0.1,0.9-0.65,1.05-1.7,1.05l-12.55,0l0,9.05l11.55,0c0.95,0,1.25,0.4,1.25,1.1l0,2.85c0,0.85-0.35,1.2-1.2,1.2l-11.6,0l0,13.95c0,0.9-0.35,1.25-1.2,1.25l-3.9,0c-1,0-1.35-0.25-1.35-1.35l0-32c0-0.8,0.35-1.25,1.15-1.25l18.85,0c0.75,0,1.05,0.25,1.05,0.85z M77.075,111.65c0,10.3-4.85,15.95-14.6,15.95c-10.55,0-14.4-5.8-14.4-16.05l0-17.95c0-0.85,0.5-1.2,1.3-1.2l3.95,0c0.85,0,1.2,0.35,1.2,1.2l0,17.4c0,7.35,1.9,11.15,8.2,11.15c6.05,0,7.95-4,7.95-11.15l0-17.4c0-0.85,0.45-1.2,1.25-1.2l3.95,0c0.85,0,1.2,0.35,1.2,1.2l0,18.05z M116.3,125.65c0,1.1-0.45,1.35-1.2,1.35l-3.35,0c-0.75,0-1.4-0.35-1.9-1.05l-16.3-22.3l-0.1,0l0,22.05c0,0.95-0.45,1.3-1.3,1.3l-3.6,0c-0.95,0-1.35-0.25-1.35-1.25l0-32c0-1.05,0.45-1.35,1.35-1.35l3.25,0c0.8,0,1.2,0.25,1.7,0.95l16.45,22.6l0.1,0l0-22.25c0-0.95,0.45-1.3,1.3-1.3l3.75,0c1.05,0,1.2,0.55,1.2,1.35l0,31.9z M152.075,126.35c0,0.4-0.3,0.65-0.8,0.65l-5,0c-1.2,0-1.75-0.4-2.4-1.25l-10.8-13.85l-0.1,0l0,13.85c0,0.9-0.35,1.25-1.2,1.25l-4,0c-0.9,0-1.25-0.35-1.25-1.25l0-32.15c0-0.85,0.45-1.2,1.25-1.2l4,0c0.8,0,1.2,0.3,1.2,1.2l0,14.15l0.1,0l10.3-14.45c0.45-0.6,1.05-0.9,1.85-0.9l4,0c0.5,0,0.8,0.3,0.8,0.65c0,0.2-0.05,0.4-0.2,0.6l-11.5,15.45l13.3,16.35c0.25,0.3,0.45,0.65,0.45,0.9z M184.25,93.65l-0.35,2.9c-0.1,0.85-0.65,1.05-1.55,1.05l-9.05,0l0,28.25c0,0.95-0.2,1.15-1.05,1.15l-4.4,0c-0.9,0-1.05-0.2-1.05-1.1l0-28.3l-9.35,0c-0.85,0-1.15-0.35-1.15-1.2l0-2.95c0-0.75,0.35-1.05,1.1-1.05l25.3,0c1.3,0,1.65,0.4,1.55,1.25z M204.475,95.55c0,0.8-0.35,1.05-1.05,1.05l-2.85,0l0,26.2l2.7,0c0.7,0,1.05,0.45,1.05,1.05l0,2.15c0,0.6-0.25,1-0.9,1l-11.9,0c-0.65,0-1-0.4-1-0.95l0-2.25c0-0.7,0.3-1,1-1l2.65,0l0-26.2l-2.9,0c-0.7,0-1-0.35-1-1l0-2.2c0-0.55,0.3-1,0.9-1l12.25,0c0.7,0,1.05,0.45,1.05,0.95l0,2.2z M243.15,109.5c0,11.3-6.45,18.1-15.4,18.1c-9.55,0-15.05-6.95-15.05-17.8c0-10.75,6-18.05,15.4-18.05c9.9,0,15.05,7.5,15.05,17.75z M236.25,109.65c0-8.4-2.95-12.45-8.3-12.45c-5,0-8.35,4.65-8.35,12.45c0,8.3,3.05,12.5,8.35,12.5c4.95,0,8.3-4.35,8.3-12.5z M280.925,125.65c0,1.1-0.45,1.35-1.2,1.35l-3.35,0c-0.75,0-1.4-0.35-1.9-1.05l-16.3-22.3l-0.1,0l0,22.05c0,0.95-0.45,1.3-1.3,1.3l-3.6,0c-0.95,0-1.35-0.25-1.35-1.25l0-32c0-1.05,0.45-1.35,1.35-1.35l3.25,0c0.8,0,1.2,0.25,1.7,0.95l16.45,22.6l0.1,0l0-22.25c0-0.95,0.45-1.3,1.3-1.3l3.75,0c1.05,0,1.2,0.55,1.2,1.35l0,31.9z"/><path fill="#" d=""/></svg>
