<svg xmlns="http://www.w3.org/2000/svg" xmlns:xlink="http://www.w3.org/1999/xlink" width="256" zoomAndPan="magnify" viewBox="0 0 192 191.999996" height="256" preserveAspectRatio="xMidYMid meet" version="1.0"><defs><clipPath id="id1"><path d="M 10 34 L 182 34 L 182 159.828125 L 10 159.828125 Z M 10 34 " clip-rule="nonzero"/></clipPath><clipPath id="id2"><path d="M 30 62 L 97 62 L 97 159.828125 L 30 159.828125 Z M 30 62 " clip-rule="nonzero"/></clipPath><clipPath id="id3"><path d="M 10 37 L 32 37 L 32 159.828125 L 10 159.828125 Z M 10 37 " clip-rule="nonzero"/></clipPath><clipPath id="id4"><path d="M 10 37 L 182 37 L 182 159.828125 L 10 159.828125 Z M 10 37 " clip-rule="nonzero"/></clipPath><clipPath id="id5"><path d="M 159 37 L 182 37 L 182 159.828125 L 159 159.828125 Z M 159 37 " clip-rule="nonzero"/></clipPath><clipPath id="id6"><path d="M 11 46 L 182 46 L 182 159.828125 L 11 159.828125 Z M 11 46 " clip-rule="nonzero"/></clipPath></defs><g clip-path="url(#id1)"><path fill="#f2f2f2" d="M 170.554688 159.371094 L 21.117188 159.371094 C 15.277344 159.371094 10.390625 154.738281 10.390625 148.753906 L 10.390625 45.054688 C 10.394531 44.351562 10.464844 43.652344 10.601562 42.960938 C 10.738281 42.269531 10.945312 41.597656 11.214844 40.945312 C 11.484375 40.292969 11.816406 39.671875 12.207031 39.085938 C 12.597656 38.5 13.042969 37.957031 13.539062 37.460938 C 14.039062 36.960938 14.578125 36.515625 15.164062 36.125 C 15.75 35.730469 16.367188 35.402344 17.015625 35.128906 C 17.667969 34.859375 18.335938 34.65625 19.027344 34.519531 C 19.71875 34.378906 20.414062 34.308594 21.117188 34.308594 L 170.554688 34.308594 C 176.394531 34.308594 181.28125 39.132812 181.28125 45.066406 L 181.28125 148.621094 C 181.148438 154.75 176.394531 159.378906 170.554688 159.378906 Z M 170.554688 159.371094 " fill-opacity="1" fill-rule="nonzero"/></g><g clip-path="url(#id2)"><path fill="#221f1f" d="M 31.757812 159.371094 L 95.691406 112.445312 L 96.097656 109.722656 L 30.15625 62.210938 L 30.019531 157.058594 Z M 31.757812 159.371094 " fill-opacity="0.098" fill-rule="nonzero"/></g><g clip-path="url(#id3)"><path fill="#d44c3d" d="M 21.117188 159.371094 C 15.199219 159.371094 10.390625 154.738281 10.390625 148.753906 L 10.390625 44.917969 C 10.390625 38.925781 15.199219 37.84375 21.117188 37.84375 C 27.035156 37.84375 31.84375 39.078125 31.84375 44.917969 L 31.84375 159.367188 Z M 21.117188 159.371094 " fill-opacity="1" fill-rule="nonzero"/></g><g clip-path="url(#id4)"><path fill="#d44c3d" d="M 21.117188 39.472656 C 28.71875 39.472656 30.214844 41.789062 30.214844 44.917969 L 30.214844 157.867188 L 21.117188 157.867188 C 16.097656 157.867188 12.019531 153.785156 12.019531 148.742188 L 12.019531 44.917969 C 11.886719 41.703125 13.515625 39.472656 21.117188 39.472656 Z M 21.117188 37.972656 C 15.199219 37.980469 10.390625 39.199219 10.390625 44.917969 L 10.390625 148.609375 C 10.382812 149.320312 10.441406 150.023438 10.574219 150.71875 C 10.703125 151.414062 10.902344 152.09375 11.167969 152.75 C 11.433594 153.40625 11.761719 154.03125 12.152344 154.621094 C 12.542969 155.214844 12.988281 155.757812 13.488281 156.261719 C 13.988281 156.761719 14.53125 157.210938 15.121094 157.601562 C 15.710938 157.992188 16.332031 158.324219 16.988281 158.589844 C 17.644531 158.855469 18.320312 159.054688 19.015625 159.183594 C 19.710938 159.316406 20.410156 159.375 21.117188 159.367188 L 31.84375 159.367188 L 31.84375 44.917969 C 31.757812 39.066406 27.089844 37.980469 21.117188 37.980469 Z M 170.554688 39.472656 C 177.476562 39.472656 179.652344 40.835938 179.652344 44.648438 L 179.652344 148.886719 C 179.652344 153.925781 175.582031 158.011719 170.554688 158.011719 L 161.460938 158.011719 L 161.460938 44.648438 C 161.324219 40.699219 163.632812 39.472656 170.554688 39.472656 Z M 170.554688 37.972656 C 164.585938 37.972656 159.832031 38.789062 159.832031 44.644531 L 159.832031 159.5 L 170.554688 159.5 C 176.527344 159.5 181.28125 154.679688 181.28125 148.742188 L 181.28125 44.507812 C 181.148438 38.652344 176.394531 37.972656 170.554688 37.972656 Z M 170.554688 37.972656 " fill-opacity="1" fill-rule="nonzero"/></g><g clip-path="url(#id5)"><path fill="#d44c3d" d="M 170.554688 159.371094 L 159.832031 159.371094 L 159.832031 44.648438 C 159.832031 38.660156 164.636719 37.980469 170.554688 37.980469 C 176.472656 37.980469 181.28125 38.792969 181.28125 44.648438 L 181.28125 148.886719 C 181.265625 149.582031 181.183594 150.269531 181.035156 150.949219 C 180.886719 151.628906 180.675781 152.289062 180.398438 152.925781 C 180.121094 153.566406 179.789062 154.171875 179.394531 154.742188 C 179 155.316406 178.554688 155.84375 178.058594 156.332031 C 177.558594 156.816406 177.023438 157.25 176.441406 157.628906 C 175.859375 158.011719 175.246094 158.332031 174.605469 158.589844 C 173.960938 158.851562 173.300781 159.046875 172.617188 159.179688 C 171.9375 159.3125 171.25 159.375 170.554688 159.371094 Z M 170.554688 159.371094 " fill-opacity="1" fill-rule="nonzero"/></g><g clip-path="url(#id6)"><path fill="#221f1f" d="M 124.8125 159.371094 L 11.34375 49.46875 L 17.3125 51.917969 L 96.367188 108.957031 L 181.277344 46.417969 L 181.277344 148.886719 C 181.273438 149.589844 181.203125 150.285156 181.0625 150.972656 C 180.921875 151.660156 180.714844 152.328125 180.445312 152.976562 C 180.175781 153.625 179.84375 154.238281 179.449219 154.820312 C 179.058594 155.402344 178.613281 155.941406 178.113281 156.433594 C 177.617188 156.925781 177.074219 157.367188 176.488281 157.75 C 175.902344 158.136719 175.285156 158.460938 174.636719 158.726562 C 173.988281 158.988281 173.320312 159.1875 172.632812 159.320312 C 171.945312 159.449219 171.25 159.511719 170.550781 159.507812 Z M 124.8125 159.371094 " fill-opacity="0.0784" fill-rule="nonzero"/></g><path fill="#d44c3d" d="M 95.640625 112.578125 L 15.007812 53.90625 C 10.199219 50.371094 8.894531 43.566406 12.425781 38.800781 C 15.957031 34.03125 22.734375 32.945312 27.628906 36.484375 L 95.765625 86.171875 L 164.3125 35.808594 C 169.117188 32.273438 175.714844 33.363281 179.242188 38.257812 C 182.765625 43.078125 181.683594 49.695312 176.800781 53.230469 Z M 95.640625 112.578125 " fill-opacity="1" fill-rule="nonzero"/><path fill="#d44c3d" d="M 170.554688 35.390625 C 173.40625 35.390625 176.253906 36.753906 178.023438 39.207031 C 180.875 43.289062 180.054688 49.007812 175.992188 52.0625 L 95.640625 110.675781 L 15.957031 52.683594 C 11.886719 49.683594 10.796875 43.828125 13.597656 39.828125 C 15.226562 37.378906 18.082031 35.878906 21.199219 35.878906 C 23.226562 35.878906 25.132812 36.425781 26.625 37.648438 L 94.617188 87.199219 L 95.570312 87.746094 L 96.519531 87.199219 L 164.996094 36.882812 C 166.757812 35.925781 168.519531 35.382812 170.5625 35.382812 Z M 170.554688 33.757812 C 168.382812 33.757812 166.070312 34.304688 164.304688 35.792969 L 95.765625 86.167969 L 27.496094 36.34375 C 25.730469 34.984375 23.425781 34.308594 21.117188 34.308594 C 17.726562 34.445312 14.332031 35.945312 12.292969 38.808594 C 8.902344 43.632812 10.261719 50.246094 15.007812 53.78125 L 95.640625 112.578125 L 176.800781 53.21875 C 177.367188 52.804688 177.886719 52.339844 178.359375 51.824219 C 178.835938 51.304688 179.253906 50.746094 179.621094 50.148438 C 179.988281 49.550781 180.292969 48.921875 180.539062 48.261719 C 180.78125 47.605469 180.960938 46.929688 181.074219 46.234375 C 181.1875 45.542969 181.234375 44.84375 181.210938 44.140625 C 181.1875 43.4375 181.097656 42.746094 180.941406 42.058594 C 180.785156 41.375 180.5625 40.710938 180.277344 40.070312 C 179.988281 39.429688 179.644531 38.820312 179.242188 38.246094 C 177.066406 35.386719 173.8125 33.746094 170.554688 33.746094 Z M 170.554688 33.757812 " fill-opacity="1" fill-rule="nonzero"/></svg>